<svg width="26" height="26" viewBox="0 0 26 26" fill="none" xmlns="http://www.w3.org/2000/svg">
<path d="M17.0044 15.861L9.49717 8.51997C9.20102 8.23037 8.72617 8.23569 8.43658 8.53184C8.14698 8.82799 8.1523 9.30284 8.44845 9.59243L15.9557 16.9335C16.2519 17.2231 16.7267 17.2178 17.0163 16.9216C17.3059 16.6255 17.3006 16.1506 17.0044 15.861Z" fill="#1E1147"/>
<path d="M9.59162 17.0049L16.9327 9.49766C17.2223 9.20151 17.217 8.72666 16.9208 8.43706C16.6246 8.14747 16.1498 8.15278 15.8602 8.44894L8.51915 15.9562C8.22956 16.2523 8.23487 16.7272 8.53102 17.0168C8.82718 17.3064 9.30202 17.3011 9.59162 17.0049Z" fill="#1E1147"/>
</svg>
